# xmcd CD database file
#
# Track frame offsets:
#	180
#	15797
#	33913
#	50877
#	69761
#	86521
#	112299
#	126974
#	141243
#	159167
#	173035
#	190113
#	205329
#	221684
#	239860
#	255286
#
# Disc length: 3595 seconds
#
# Revision: 5
# Processed by: cddbd v1.4PL0 Copyright (c) Steve Scherf et al.
# Submitted via: CDex 1.50beta9
#
DISCID=de0e0910
DTITLE=Таня буланова - The BEST
DYEAR=1998
DGENRE=Pop
TTITLE0=Ясный мой свет
TTITLE1=Мой ненаглядный
TTITLE2=Стерпится слюбица
TTITLE3=Вот и солнце село
TTITLE4=Обратный билет
TTITLE5=Коростель
TTITLE6=Берег мой
TTITLE7=Купи продай
TTITLE8=Птица феникс
TTITLE9=Чья вина
TTITLE10=Королевна
TTITLE11=Лети коровка божья
TTITLE12=Змей
TTITLE13=Бегущая по волнам
TTITLE14=Серебристый тополь
TTITLE15=Нежность
EXTD=1995,  ARTS MUSIC GMBH YEAR: 1998
EXTT0=
EXTT1=
EXTT2=
EXTT3=
EXTT4=
EXTT5=
EXTT6=
EXTT7=
EXTT8=
EXTT9=
EXTT10=
EXTT11=
EXTT12=
EXTT13=
EXTT14=
EXTT15=
PLAYORDER=
